<?xml version="1.0" encoding="utf-8"?>
<!-- Generator: Adobe Illustrator 22.1.0, SVG Export Plug-In . SVG Version: 6.00 Build 0)  -->
<svg version="1.1" id="Layer_1" xmlns="http://www.w3.org/2000/svg" xmlns:xlink="http://www.w3.org/1999/xlink" x="0px" y="0px"
	 viewBox="0 0 512 512" style="enable-background:new 0 0 512 512;" xml:space="preserve">
<style type="text/css">
	.st0{fill:#FFFFFF;stroke:#000000;stroke-width:24;stroke-miterlimit:10;}
	.st1{fill:#FFFFFF;}
</style>
<path class="st0" d="M363.1,25H154.9C87.2,25,32,81.4,32,150.6v212.8C32,432.6,87.2,489,154.9,489h208.2
	c67.7,0,122.9-56.4,122.9-125.6V150.6C486,81.4,430.8,25,363.1,25z M259,383.9c-68.5,0-124.1-56.9-124.1-126.9
	S190.5,130.1,259,130.1S383.1,187,383.1,257S327.5,383.9,259,383.9z M386.1,160c-20.2,0-36.7-16.9-36.7-37.5S365.8,85,386.1,85
	c20.2,0,36.7,16.9,36.7,37.5S406.4,160,386.1,160z"/>
<path class="st1" d="M259,157.3c-53.7,0-97.5,44.7-97.5,99.7c0,54.9,43.7,99.7,97.5,99.7c53.7,0,97.5-44.7,97.5-99.7
	C356.5,202.1,312.7,157.3,259,157.3z"/>
<path class="st1" d="M386.1,112.3c-5.6,0-10.1,4.6-10.1,10.3s4.5,10.3,10.1,10.3c5.6,0,10.1-4.6,10.1-10.3S391.7,112.3,386.1,112.3z
	"/>
</svg>
