<?xml version="1.0" encoding="utf-8"?>
<!-- Generator: Adobe Illustrator 22.1.0, SVG Export Plug-In . SVG Version: 6.00 Build 0)  -->
<svg version="1.1" id="Layer_1" xmlns="http://www.w3.org/2000/svg" xmlns:xlink="http://www.w3.org/1999/xlink" x="0px" y="0px"
	 viewBox="0 0 512 512" style="enable-background:new 0 0 512 512;" xml:space="preserve">
<style type="text/css">
	.st0{fill:#D7D7D7;}
</style>
<g>
	<g>
		<g>
			<path class="st0" d="M256,512c141.2,0,256-114.8,256-256S397.2,0,256,0S0,114.8,0,256C0,397.2,114.8,512,256,512z M256,21.3
				c129.4,0,234.7,105.3,234.7,234.7S385.4,490.7,256,490.7S21.3,385.4,21.3,256S126.6,21.3,256,21.3z"/>
			<path d="M205.8,359.5c4.2,4.2,10.9,4.2,15.1,0c4.2-4.2,4.2-10.9,0-15.1l-77.8-77.8h251.6c5.9,0,10.7-4.8,10.7-10.7
				c0-5.9-4.8-10.7-10.7-10.7H143.1l77.8-77.8c4.2-4.2,4.2-10.9,0-15.1c-2.1-2.1-4.8-3.1-7.5-3.1s-5.5,1-7.5,3.1l-96,96
				c-4.2,4.2-4.2,10.9,0,15.1L205.8,359.5z"/>
		</g>
	</g>
</g>
</svg>
