<?xml version="1.0" encoding="utf-8"?>
<!-- Generator: Adobe Illustrator 22.1.0, SVG Export Plug-In . SVG Version: 6.00 Build 0)  -->
<svg version="1.1" id="Capa_1" xmlns="http://www.w3.org/2000/svg" xmlns:xlink="http://www.w3.org/1999/xlink" x="0px" y="0px"
	 viewBox="0 0 512 512" style="enable-background:new 0 0 512 512;" xml:space="preserve">
<style type="text/css">
	.st0{fill:none;}
	.st1{fill:#FFFFFF;}
</style>
<g>
	<circle class="st0" cx="256" cy="256" r="247.5"/>
	<path class="st1" d="M256,512C114.6,512,0,397.4,0,256S114.6,0,256,0s256,114.6,256,256C511.8,397.3,397.3,511.8,256,512z
		 M256,17.1C124,17.1,17.1,124,17.1,256S124,494.9,256,494.9S494.9,388,494.9,256C494.8,124.1,387.9,17.2,256,17.1z"/>
	<polygon class="st1" points="384,256 196.3,384 196.3,258.3 196.3,128 	"/>
	<path class="st1" d="M196.3,392.5c-4.7,0-8.5-3.8-8.5-8.5V128c0-3.2,1.8-6.1,4.5-7.5s6.2-1.3,8.8,0.5l187.7,128
		c2.3,1.6,3.7,4.2,3.7,7.1c0,2.8-1.4,5.5-3.7,7L201.1,391C199.7,392,198,392.5,196.3,392.5L196.3,392.5z M204.8,144.1v223.7
		L368.9,256L204.8,144.1z"/>
</g>
</svg>
